<svg width="24" height="29" viewBox="0 0 24 29" fill="none" xmlns="http://www.w3.org/2000/svg">
<path d="M23 11.8947C23 20.3684 12 27.6316 12 27.6316C12 27.6316 1 20.3684 1 11.8947C1 9.00527 2.15893 6.23415 4.22183 4.19099C6.28473 2.14783 9.08262 1 12 1C14.9174 1 17.7153 2.14783 19.7782 4.19099C21.8411 6.23415 23 9.00527 23 11.8947Z" fill="#DC3545" stroke="#FBEAEA" stroke-linecap="round" stroke-linejoin="round"/>
<path d="M12.1654 4.47363C8.32067 5.8084 6.78943 9.84957 6.78943 13.0751C6.78943 16.3007 8.66556 18.7304 11.0902 19.5263C8.9398 16.0227 8.9398 13.0751 12.1654 10.9248C11.6225 12.3793 12.1654 15.2255 13.2406 16.3007C13.7045 15.8698 14.3157 14.7689 14.3157 14.1503C16.4661 16.3007 14.921 18.0568 14.3157 19.5263C15.4857 18.9251 17.5413 17.3759 17.5413 14.1503C17.5413 10.9248 15.3909 9.84957 15.3909 6.62401C13.9034 7.26831 13.2406 8.77438 13.2406 9.84957C12.2169 9.25117 11.0902 6.88896 12.1654 4.47363Z" fill="white"/>
</svg>
