<svg width="24" height="29" viewBox="0 0 24 29" fill="none" xmlns="http://www.w3.org/2000/svg">
<path d="M23 11.8947C23 20.3684 12 27.6316 12 27.6316C12 27.6316 1 20.3684 1 11.8947C1 9.00527 2.15893 6.23415 4.22183 4.19099C6.28473 2.14783 9.08262 1 12 1C14.9174 1 17.7153 2.14783 19.7782 4.19099C21.8411 6.23415 23 9.00527 23 11.8947Z" fill="#EA5382" stroke="#FBEAEA" stroke-linecap="round" stroke-linejoin="round"/>
<g clip-path="url(#clip0_2789_47926)">
<path d="M12 6C10.4087 6 8.88258 6.63214 7.75736 7.75736C6.63214 8.88258 6 10.4087 6 12C6 13.5913 6.63214 15.1174 7.75736 16.2426C8.88258 17.3679 10.4087 18 12 18C13.5913 18 15.1174 17.3679 16.2426 16.2426C17.3679 15.1174 18 13.5913 18 12C18 10.4087 17.3679 8.88258 16.2426 7.75736C15.1174 6.63214 13.5913 6 12 6ZM11.1429 8.57143H12.8571V11.1429H15.4286V12.8571H12.8571V15.4286H11.1429V12.8571H8.57143V11.1429H11.1429V8.57143Z" fill="white"/>
</g>
<defs>
<clipPath id="clip0_2789_47926">
<rect width="12" height="12" fill="white" transform="translate(6 6)"/>
</clipPath>
</defs>
</svg>
