<svg width="24" height="29" viewBox="0 0 24 29" fill="none" xmlns="http://www.w3.org/2000/svg">
<path d="M23 11.8947C23 20.3684 12 27.6316 12 27.6316C12 27.6316 1 20.3684 1 11.8947C1 9.00527 2.15893 6.23415 4.22183 4.19099C6.28473 2.14783 9.08262 1 12 1C14.9174 1 17.7153 2.14783 19.7782 4.19099C21.8411 6.23415 23 9.00527 23 11.8947Z" fill="#98800B" stroke="#FAFDE8" stroke-linecap="round" stroke-linejoin="round"/>
<path d="M8.10675 6.79103C7.91717 6.79867 7.72867 6.83658 7.54159 6.90854V14.5485C7.54159 14.5485 10.5856 14.4291 11.3616 17.4135V9.39116C10.7695 8.14432 9.43383 6.73755 8.10675 6.79103ZM11.3616 17.4135C9.39189 15.8915 6.58659 15.5035 6.58659 15.5035V8.24591L5.63159 7.86354V16.4585L11.3616 18.3685H13.2716L19.0015 16.4585V7.86354L18.0465 8.24591V15.8859L13.2716 17.4135C12.6349 17.1703 11.8927 17.2136 11.3616 17.4135ZM17.0916 6.90854C15.1887 6.80678 12.992 7.94918 11.8391 8.93231V17.0162C12.9037 16.1332 14.8125 14.9713 17.0916 14.7388V6.90854Z" fill="white"/>
</svg>
