<svg width="24" height="29" viewBox="0 0 24 29" fill="none" xmlns="http://www.w3.org/2000/svg">
<path d="M12 27.6316L11.7245 28.0488C11.8916 28.1592 12.1084 28.1592 12.2755 28.0488L12 27.6316ZM12 27.6316C12.2755 28.0488 12.2757 28.0487 12.2758 28.0486L12.2764 28.0482L12.2784 28.0469L12.2852 28.0424L12.3106 28.0253C12.3327 28.0105 12.3648 27.9888 12.4064 27.9603C12.4895 27.9032 12.6103 27.8192 12.7636 27.7096C13.0699 27.4905 13.5059 27.169 14.0284 26.7569C15.0725 25.9334 16.466 24.7451 17.8613 23.2864C20.6308 20.391 23.5 16.3344 23.5 11.8947C23.5 8.8711 22.2872 5.97229 20.13 3.83575C17.973 1.69936 15.0484 0.5 12 0.5C8.95155 0.5 6.02701 1.69936 3.86998 3.83575C1.71278 5.97229 0.5 8.8711 0.5 11.8947C0.5 16.3344 3.36918 20.391 6.13868 23.2864C7.53395 24.7451 8.92749 25.9334 9.97162 26.7569C10.4941 27.169 10.9301 27.4905 11.2364 27.7096C11.3897 27.8192 11.5105 27.9032 11.5936 27.9603C11.6352 27.9888 11.6673 28.0105 11.6894 28.0253L11.7148 28.0424L11.7216 28.0469L11.7236 28.0482L11.7242 28.0486C11.7243 28.0487 11.7245 28.0488 12 27.6316Z" fill="#165C96" stroke="#CEE0F4" stroke-linecap="round" stroke-linejoin="round"/>
<path d="M10.8008 5.63159L9.84964 6.58272V7.53385H15.5564V6.58272L14.6053 5.63159H10.8008ZM9.84964 8.48498C9.81797 8.64546 9.84964 8.80791 9.84964 8.97815C9.84964 10.34 11.3898 11.3384 12.703 11.3384C14.0162 11.3384 15.5564 10.34 15.5564 8.97815C15.5564 8.80791 15.5564 8.48498 15.5564 8.48498H9.84964ZM9.84964 12.2895C8.50008 12.2895 7.96085 14.0744 7.94739 15.1429V18.9474H9.4038L14.6053 12.2895H9.84964ZM16.032 12.2895L10.8305 18.9474H17.4587V15.1429C17.4587 14.0743 17.1992 12.2895 16.032 12.2895Z" fill="white"/>
</svg>
