<svg width="14" height="14" viewBox="0 0 22 23" fill="#76CBC0" xmlns="http://www.w3.org/2000/svg">
<path d="M11.5317 0.809166C11.1922 0.663627 10.8077 0.663627 10.4682 0.809166L1.01816 4.85917C0.521787 5.0719 0.199951 5.55997 0.199951 6.10001C0.199951 6.64005 0.521787 7.12813 1.01816 7.34086L4.58795 8.87077C4.71777 8.72369 4.88049 8.6039 5.06816 8.52347L10.4682 6.20918C11.1535 5.91548 11.9471 6.23294 12.2408 6.91824C12.5345 7.60354 12.217 8.39717 11.5317 8.69088L7.84997 10.2688L10.4682 11.3909C10.8077 11.5364 11.1922 11.5364 11.5317 11.3909L20.9817 7.34086C21.4781 7.12813 21.7999 6.64005 21.7999 6.10001C21.7999 5.55997 21.4781 5.0719 20.9817 4.85917L11.5317 0.809166Z"/>
<path d="M1.96851 10.6856L4.24995 11.6634V17.2006C3.78721 17.0956 3.31447 17.0171 2.83341 16.9667C2.19922 16.9002 1.69804 16.399 1.63154 15.7648C1.57758 15.2501 1.54995 14.7279 1.54995 14.1998C1.54995 12.9895 1.69495 11.8125 1.96851 10.6856Z"/>
<path d="M10.0549 20.3729C9.14651 19.4824 8.09971 18.7338 6.94995 18.1624V12.8205L9.40458 13.8725C10.4233 14.3091 11.5766 14.3091 12.5953 13.8725L20.0314 10.6856C20.3049 11.8125 20.4499 12.9895 20.4499 14.1998C20.4499 14.7279 20.4223 15.2501 20.3684 15.7648C20.3019 16.399 19.8007 16.9002 19.1665 16.9667C16.3682 17.2601 13.8517 18.5038 11.945 20.3729C11.4201 20.8875 10.5798 20.8875 10.0549 20.3729Z"/>
<path d="M5.59995 22.3C6.34554 22.3 6.94995 21.6956 6.94995 20.95V18.1624C6.10129 17.7406 5.19653 17.4153 4.24995 17.2006V20.95C4.24995 21.6956 4.85437 22.3 5.59995 22.3Z"/>
</svg>
