<svg width="24" height="29" viewBox="0 0 24 29" fill="none" xmlns="http://www.w3.org/2000/svg">
<path d="M23 11.8947C23 20.3684 12 27.6316 12 27.6316C12 27.6316 1 20.3684 1 11.8947C1 9.00527 2.15893 6.23415 4.22183 4.19099C6.28473 2.14783 9.08262 1 12 1C14.9174 1 17.7153 2.14783 19.7782 4.19099C21.8411 6.23415 23 9.00527 23 11.8947Z" fill="#1B7979" stroke="#EDF8F4" stroke-linecap="round" stroke-linejoin="round"/>
<path d="M12.3136 6.85392C12.1133 6.7681 11.8867 6.7681 11.6864 6.85392L6.11406 9.24208C5.82137 9.36752 5.63159 9.65532 5.63159 9.97377C5.63159 10.2922 5.82137 10.58 6.11406 10.7055L8.21906 11.6076C8.29561 11.5209 8.39156 11.4502 8.50222 11.4028L11.6864 10.0381C12.0905 9.86496 12.5585 10.0521 12.7317 10.4562C12.9049 10.8604 12.7177 11.3283 12.3136 11.5015L10.1426 12.432L11.6864 13.0936C11.8867 13.1794 12.1133 13.1794 12.3136 13.0936L17.886 10.7055C18.1787 10.58 18.3684 10.2922 18.3684 9.97377C18.3684 9.65532 18.1787 9.36752 17.886 9.24208L12.3136 6.85392Z" fill="white"/>
<path d="M6.67446 12.6777L8.01975 13.2543V16.5194C7.74689 16.4575 7.46813 16.4112 7.18446 16.3815C6.8105 16.3423 6.51497 16.0468 6.47576 15.6728C6.44393 15.3693 6.42764 15.0614 6.42764 14.75C6.42764 14.0363 6.51315 13.3423 6.67446 12.6777Z" fill="white"/>
<path d="M11.4427 18.39C10.9071 17.8649 10.2898 17.4236 9.61186 17.0866V13.9366L11.0593 14.557C11.66 14.8144 12.34 14.8144 12.9408 14.557L17.3256 12.6777C17.4869 13.3423 17.5724 14.0363 17.5724 14.75C17.5724 15.0614 17.5561 15.3693 17.5243 15.6728C17.4851 16.0468 17.1895 16.3423 16.8156 16.3815C15.1655 16.5545 13.6816 17.2879 12.5573 18.39C12.2477 18.6935 11.7523 18.6935 11.4427 18.39Z" fill="white"/>
<path d="M8.8158 19.5264C9.25545 19.5264 9.61186 19.17 9.61186 18.7303V17.0866C9.11142 16.8379 8.57792 16.646 8.01975 16.5194V18.7303C8.01975 19.17 8.37615 19.5264 8.8158 19.5264Z" fill="white"/>
</svg>
